<svg xmlns="http://www.w3.org/2000/svg" width="1200" height="630" viewBox="0 0 1200 630" role="img" aria-labelledby="title desc">
<title id="title">CodeSpace — semantic code context engine</title>
<desc id="desc">A dark technical card with a semantic graph and the CodeSpace cse command.</desc>
<defs>
  <linearGradient id="bg" x1="0" y1="0" x2="1" y2="1"><stop stop-color="#07111f"/><stop offset="1" stop-color="#0d1629"/></linearGradient>
  <radialGradient id="glow"><stop stop-color="#66e3ff" stop-opacity=".3"/><stop offset="1" stop-color="#66e3ff" stop-opacity="0"/></radialGradient>
  <filter id="blur"><feGaussianBlur stdDeviation="26"/></filter>
</defs>
<rect width="1200" height="630" rx="36" fill="url(#bg)"/>
<circle cx="920" cy="190" r="270" fill="url(#glow)" filter="url(#blur)"/>
<g stroke="#29425f" stroke-width="3" opacity=".85">
  <path d="M735 175 865 112 1015 190 930 325 760 300Z"/><path d="M865 112 930 325M735 175 1015 190M760 300 1015 190"/>
</g>
<g fill="#07111f" stroke="#66e3ff" stroke-width="4">
  <circle cx="735" cy="175" r="18"/><circle cx="865" cy="112" r="22"/><circle cx="1015" cy="190" r="17"/><circle cx="930" cy="325" r="24"/><circle cx="760" cy="300" r="15"/>
</g>
<g font-family="ui-monospace, SFMono-Regular, Menlo, Consolas, monospace">
  <text x="88" y="142" fill="#66e3ff" font-size="34" font-weight="700">$ cse context</text>
  <text x="88" y="258" fill="#f5f7fb" font-size="88" font-weight="800" letter-spacing="-4">CodeSpace</text>
  <text x="92" y="322" fill="#9fb1c7" font-size="30">Semantic code context. Local-first.</text>
  <rect x="88" y="390" width="524" height="82" rx="18" fill="#101d31" stroke="#233854"/>
  <text x="120" y="442" fill="#d9f8ff" font-size="27">47 files → 982 tokens</text>
  <text x="92" y="546" fill="#7e91aa" font-size="24">Rust · CLI · MCP · REST · Apache-2.0</text>
</g>
</svg>